<svg xmlns="http://www.w3.org/2000/svg" viewBox="0 0 24 24" fill="none">
  <path fill="#9CA3AF" d="m17.326 8.158l-.003-.007a6.6 6.6 0 0 0-1.178-1.674c-1.266-1.307-3.067-2.19-5.102-2.417a9.3 9.3 0 0 0-2.124 0h-.001c-2.061.228-3.882 1.107-5.14 2.405a6.7 6.7 0 0 0-1.194 1.682A5.7 5.7 0 0 0 2 10.657c0 1.106.332 2.218.988 3.201l.006.01c.391.594 1.092 1.39 1.637 1.83l.983.793l-.208.875l.527-.267l.708-.358l.761.225c.467.137.955.227 1.517.29h.005q.515.06 1.026.059c.355 0 .724-.02 1.095-.06a7 7 0 0 1-.061-.926c0-3.947 3.325-7.08 7.34-7.08h.092a5.4 5.4 0 0 0-.586-1.09m-11.41 1.445c0-.613.493-1.11 1.101-1.11c.609 0 1.102.497 1.102 1.11s-.493 1.11-1.102 1.11a1.106 1.106 0 0 1-1.102-1.11m5.202 1.11a1.106 1.106 0 0 1-1.102-1.11c0-.613.493-1.11 1.102-1.11c.608 0 1.101.497 1.101 1.11s-.493 1.11-1.101 1.11"/>
  <path fill="#9CA3AF" d="M22 16.418c0 2.612-2.225 4.806-5.093 4.806a6.2 6.2 0 0 1-1.717-.25l-.943.503l.24-1.013C13.01 19.438 12 18.01 12 16.418c0-2.612 2.225-4.806 5.093-4.806S22 13.806 22 16.418m-6.641-.81a.81.81 0 1 0-1.62 0a.81.81 0 0 0 1.62 0m4.028 0a.81.81 0 1 0-1.62 0a.81.81 0 0 0 1.62 0"/>
</svg>
